<mxfile host="app.diagrams.net" modified="2023-10-18T02:12:26.819Z" agent="Mozilla/5.0 (Macintosh; Intel Mac OS X 10_15_7) AppleWebKit/537.36 (KHTML, like Gecko) Chrome/117.0.0.0 Safari/537.36" version="22.0.4" etag="A5dhTax8c5Ytht-DHV8t" type="github">
  <diagram name="第 1 页" id="eSRNM8gQvgy_1YwzEHEM">
    <mxGraphModel>
      <root>
        <mxCell id="0" />
        <mxCell id="1" parent="0" />
      </root>
    </mxGraphModel>
  </diagram>
</mxfile>
